<svg height="1982" width="720" xmlns="http://www.w3.org/2000/svg">
<rect height="1982" fill="#555" width="720"></rect>
<text fill="#7f7" font-family="Courier New" font-size="12" xml:space="preserve">
<tspan x="10" y="26"></tspan>
<tspan x="10" y="42">&gt; npmdoc-twitter@0.0.1 test /home/travis/build/npmdoc/node-npmdoc-twitter</tspan>
<tspan x="10" y="58">&gt; (set -e; export PORT=$(utility2 shServerPortRandom); utility2 test test.js)</tspan>
<tspan x="10" y="74"></tspan>
<tspan x="10" y="90"></tspan>
<tspan x="10" y="106">[MODE_BUILD=npmTest] - 2017-03-21T15:54:04Z - npm-testing /home/travis/build/npmdoc/node-npmdoc-\</tspan>
<tspan x="10" y="122">twitter</tspan>
<tspan x="10" y="138"></tspan>
<tspan x="10" y="154"></tspan>
<tspan x="10" y="170">covering $ /home/travis/.nvm/versions/node/v7.7.3/bin/node /home/travis/build/npmdoc/node-npmdoc\</tspan>
<tspan x="10" y="186">-twitter/test.js</tspan>
<tspan x="10" y="202">merging file:///home/travis/build/npmdoc/node-npmdoc-twitter/tmp/build/test-report.json to test-\</tspan>
<tspan x="10" y="218">report</tspan>
<tspan x="10" y="234">&gt; server listening on http-port 62582</tspan>
<tspan x="10" y="250">created apidoc file:///home/travis/build/npmdoc/node-npmdoc-twitter/tmp/build/apidoc.html</tspan>
<tspan x="10" y="266"></tspan>
<tspan x="10" y="282"></tspan>
<tspan x="10" y="298">browserTest - created electron entry-page /home/travis/build/npmdoc/node-npmdoc-twitter/tmp/elec\</tspan>
<tspan x="10" y="314">tron.15af193465a0.8f8c4339c2f22.html</tspan>
<tspan x="10" y="330"></tspan>
<tspan x="10" y="346">[node test-case 1 of 6 passed] - testCase_buildLib_default</tspan>
<tspan x="10" y="362">[node test-case 2 of 6 passed] - testCase_buildReadme_default</tspan>
<tspan x="10" y="378">[node test-case 3 of 6 passed] - testCase_buildTest_default</tspan>
<tspan x="10" y="394"></tspan>
<tspan x="10" y="410">browserTest - created electron entry-page /home/travis/build/npmdoc/node-npmdoc-twitter/tmp/elec\</tspan>
<tspan x="10" y="426">tron.15af19346ad0.3318c82a8a462.html</tspan>
<tspan x="10" y="442"></tspan>
<tspan x="10" y="458">(node:4999) DeprecationWarning: node --debug is deprecated. Please use node --inspect instead.</tspan>
<tspan x="10" y="474">Xlib:  extension "RANDR" missing on display ":99.0".</tspan>
<tspan x="10" y="490">Xlib:  extension "RANDR" missing on display ":99.0".</tspan>
<tspan x="10" y="506">&gt; server listening on http-port 42185</tspan>
<tspan x="10" y="522">merging file:///home/travis/build/npmdoc/node-npmdoc-twitter/tmp/build/test-report.json to test-\</tspan>
<tspan x="10" y="538">report</tspan>
<tspan x="10" y="554">Xlib:  extension "RANDR" missing on display ":99.0".</tspan>
<tspan x="10" y="570">[5029:0321/155406:WARNING:audio_manager.cc(314)] Multiple instances of AudioManager detected</tspan>
<tspan x="10" y="586">[5029:0321/155406:WARNING:audio_manager.cc(275)] Multiple instances of AudioManager detected</tspan>
<tspan x="10" y="602">merging file:///home/travis/build/npmdoc/node-npmdoc-twitter/tmp/build/test-report.json to test-\</tspan>
<tspan x="10" y="618">report</tspan>
<tspan x="10" y="634">[5060:0321/155406:ERROR:sandbox_linux.cc(343)] InitializeSandbox() called with multiple threads \</tspan>
<tspan x="10" y="650">in process gpu-process. </tspan>
<tspan x="10" y="666">Xlib:  extension "RANDR" missing on display ":99.0".</tspan>
<tspan x="10" y="682">[5034:0321/155406:WARNING:audio_manager.cc(314)] Multiple instances of AudioManager detected</tspan>
<tspan x="10" y="698">[5034:0321/155406:WARNING:audio_manager.cc(275)] Multiple instances of AudioManager detected</tspan>
<tspan x="10" y="714">[5029:0321/155406:ERROR:browser_gpu_channel_host_factory.cc(131)] Failed to create channel.</tspan>
<tspan x="10" y="730">[5086:0321/155406:ERROR:sandbox_linux.cc(343)] InitializeSandbox() called with multiple threads \</tspan>
<tspan x="10" y="746">in process gpu-process. </tspan>
<tspan x="10" y="762">[5034:0321/155406:ERROR:browser_gpu_channel_host_factory.cc(131)] Failed to create channel.</tspan>
<tspan x="10" y="778"></tspan>
<tspan x="10" y="794">browserTest - opened url file:///home/travis/build/npmdoc/node-npmdoc-twitter/tmp/build/apidoc.h\</tspan>
<tspan x="10" y="810">tml</tspan>
<tspan x="10" y="826"></tspan>
<tspan x="10" y="842"></tspan>
<tspan x="10" y="858">browserTest - opened url http://127.0.0.1:62582?modeTest=1</tspan>
<tspan x="10" y="874"></tspan>
<tspan x="10" y="890">[5034:0321/155408:INFO:CONSOLE(203)] "----------|-----------|-----------|-----------|-----------\</tspan>
<tspan x="10" y="906">|</tspan>
<tspan x="10" y="922">File      |   % Stmts |% Branches |   % Funcs |   % Lines |</tspan>
<tspan x="10" y="938">----------|-----------|-----------|-----------|-----------|</tspan>
<tspan x="10" y="954">----------|-----------|-----------|-----------|-----------|</tspan>
<tspan x="10" y="970">All files |       100 |       100 |       100 |       100 |</tspan>
<tspan x="10" y="986">----------|-----------|-----------|-----------|-----------|</tspan>
<tspan x="10" y="1002">", source: file:///home/travis/build/npmdoc/node-npmdoc-twitter/tmp/electron.15af19346ad0.3318c8\</tspan>
<tspan x="10" y="1018">2a8a462.html (203)</tspan>
<tspan x="10" y="1034">[5034:0321/155408:INFO:CONSOLE(203)] "created coverage file:///tmp/build/coverage.html/index.htm\</tspan>
<tspan x="10" y="1050">l", source: file:///home/travis/build/npmdoc/node-npmdoc-twitter/tmp/electron.15af19346ad0.3318c\</tspan>
<tspan x="10" y="1066">82a8a462.html (203)</tspan>
<tspan x="10" y="1082">[node test-case 4 of 6 passed] - testCase_buildApp_default</tspan>
<tspan x="10" y="1098"></tspan>
<tspan x="10" y="1114">browserTest - created screen-capture file:///home/travis/build/npmdoc/node-npmdoc-twitter/tmp/bu\</tspan>
<tspan x="10" y="1130">ild/screen-capture.npmTest.browser._2Fhome_2Ftravis_2Fbuild_2Fnpmdoc_2Fnode-npmdoc-twitter_2Ftmp\</tspan>
<tspan x="10" y="1146">_2Fbuild_2Fapidoc.html.png</tspan>
<tspan x="10" y="1162"></tspan>
<tspan x="10" y="1178"></tspan>
<tspan x="10" y="1194">browserTest - exit-code 0 - file:///home/travis/build/npmdoc/node-npmdoc-twitter/tmp/build/apido\</tspan>
<tspan x="10" y="1210">c.html</tspan>
<tspan x="10" y="1226"></tspan>
<tspan x="10" y="1242">[node test-case 5 of 6 passed] - testCase_buildApidoc_default</tspan>
<tspan x="10" y="1258"></tspan>
<tspan x="10" y="1274">browserTest - created screen-capture file:///home/travis/build/npmdoc/node-npmdoc-twitter/tmp/bu\</tspan>
<tspan x="10" y="1290">ild/screen-capture.npmTest.browser..png</tspan>
<tspan x="10" y="1306"></tspan>
<tspan x="10" y="1322"></tspan>
<tspan x="10" y="1338">browserTest - exit-code 0 - http://127.0.0.1:62582?modeTest=1</tspan>
<tspan x="10" y="1354"></tspan>
<tspan x="10" y="1370"></tspan>
<tspan x="10" y="1386">browserTest - merged coverage from /home/travis/build/npmdoc/node-npmdoc-twitter/tmp/coverage.np\</tspan>
<tspan x="10" y="1402">mTest.browser.%2F.json</tspan>
<tspan x="10" y="1418"></tspan>
<tspan x="10" y="1434"></tspan>
<tspan x="10" y="1450">browserTest - merging test-report from /home/travis/build/npmdoc/node-npmdoc-twitter/tmp/test-re\</tspan>
<tspan x="10" y="1466">port.npmTest.browser.%2F.json</tspan>
<tspan x="10" y="1482"></tspan>
<tspan x="10" y="1498">[node test-case 6 of 6 passed] - testCase_webpage_default</tspan>
<tspan x="10" y="1514">----------------------------|-----------|-----------|-----------|-----------|</tspan>
<tspan x="10" y="1530">File                        |   % Stmts |% Branches |   % Funcs |   % Lines |</tspan>
<tspan x="10" y="1546">----------------------------|-----------|-----------|-----------|-----------|</tspan>
<tspan x="10" y="1562">   node-npmdoc-twitter/     |       100 |       100 |       100 |       100 |</tspan>
<tspan x="10" y="1578">      example.js            |       100 |       100 |       100 |       100 |</tspan>
<tspan x="10" y="1594">      lib.npmdoc_twitter.js |       100 |       100 |       100 |       100 |</tspan>
<tspan x="10" y="1610">      test.js               |       100 |       100 |       100 |       100 |</tspan>
<tspan x="10" y="1626">----------------------------|-----------|-----------|-----------|-----------|</tspan>
<tspan x="10" y="1642">All files                   |       100 |       100 |       100 |       100 |</tspan>
<tspan x="10" y="1658">----------------------------|-----------|-----------|-----------|-----------|</tspan>
<tspan x="10" y="1674"></tspan>
<tspan x="10" y="1690">created coverage file:///home/travis/build/npmdoc/node-npmdoc-twitter/tmp/build/coverage.html/in\</tspan>
<tspan x="10" y="1706">dex.html</tspan>
<tspan x="10" y="1722">merging file:///home/travis/build/npmdoc/node-npmdoc-twitter/tmp/build/test-report.json to test-\</tspan>
<tspan x="10" y="1738">report</tspan>
<tspan x="10" y="1754"></tspan>
<tspan x="10" y="1770">-------------------------------------------------------</tspan>
<tspan x="10" y="1786">| test-report - buildNpmdoc - node - linux v7.7.3 - 2017-03-21T15:53:54.782Z</tspan>
<tspan x="10" y="1802">|   16309 ms            0 failed        6 passed      |</tspan>
<tspan x="10" y="1818">-------------------------------------------------------</tspan>
<tspan x="10" y="1834"></tspan>
<tspan x="10" y="1850">created test-report file:///home/travis/build/npmdoc/node-npmdoc-twitter/tmp/build/test-report.h\</tspan>
<tspan x="10" y="1866">tml</tspan>
<tspan x="10" y="1882"></tspan>
<tspan x="10" y="1898"></tspan>
<tspan x="10" y="1914">npmTest - 0 failed tests</tspan>
<tspan x="10" y="1930"></tspan>
<tspan x="10" y="1946"></tspan>
<tspan x="10" y="1962">[MODE_BUILD=npmTest] - 2017-03-21T15:54:13Z - EXIT_CODE - 0</tspan>
</text>
</svg>
